<svg width="24" height="24" viewBox="0 0 24 24" fill="none" xmlns="http://www.w3.org/2000/svg">
<path opacity="0.12" d="M20 4H5V16H20L18.4311 12.8622C17.9064 11.8127 17.644 11.288 17.5407 10.7376C17.4493 10.2501 17.4493 9.74988 17.5407 9.26241C17.644 8.71202 17.9064 8.18729 18.4311 7.13784L18.4311 7.13783L20 4Z" fill="#0EC02B"/>
<path fill-rule="evenodd" clip-rule="evenodd" d="M5 1.25C5.41421 1.25 5.75 1.58579 5.75 2V3.25H20C20.2599 3.25 20.5013 3.38459 20.638 3.6057C20.7746 3.82681 20.7871 4.10292 20.6708 4.33541L19.1019 7.47324C18.5577 8.56158 18.3572 8.97777 18.2779 9.40071C18.2036 9.79678 18.2036 10.2032 18.2779 10.5993C18.3572 11.0222 18.5577 11.4384 19.1019 12.5268L20.6708 15.6646C20.7871 15.8971 20.7746 16.1732 20.638 16.3943C20.5013 16.6154 20.2599 16.75 20 16.75H5.75V22C5.75 22.4142 5.41421 22.75 5 22.75C4.58579 22.75 4.25 22.4142 4.25 22V16V4V2C4.25 1.58579 4.58579 1.25 5 1.25ZM5.75 15.25H18.7865L17.7603 13.1976C17.7432 13.1634 17.7263 13.1297 17.7096 13.0964C17.2333 12.1441 16.9265 11.5308 16.8036 10.8759C16.695 10.297 16.695 9.70299 16.8036 9.12411C16.9265 8.46918 17.2333 7.85586 17.7096 6.90363C17.7263 6.87032 17.7432 6.83659 17.7603 6.80242L18.7865 4.75H5.75V15.25Z" fill="#0EC02B"/>
</svg>
