<svg width="24" height="24" viewBox="0 0 24 24" fill="none" xmlns="http://www.w3.org/2000/svg">
<path opacity="0.12" d="M22 17V11.845C22 10.433 22 9.72701 21.8204 9.07517C21.6613 8.49771 21.3998 7.95353 21.0483 7.46857C20.6514 6.92115 20.1001 6.48011 18.9976 5.59805L16.9976 3.99805C15.214 2.57118 14.3222 1.85774 13.3332 1.58413C12.4608 1.34279 11.5392 1.34279 10.6668 1.58413C9.67783 1.85774 8.78603 2.57118 7.00244 3.99805L5.00244 5.59805C3.89986 6.48011 3.34857 6.92115 2.95174 7.46857C2.6002 7.95353 2.33865 8.49771 2.17957 9.07517C2 9.72701 2 10.433 2 11.845V17C2 19.7614 4.23858 22 7 22C8.10457 22 9 21.1046 9 20V15.9999C9 14.3431 10.3431 12.9999 12 12.9999C13.6569 12.9999 15 14.3431 15 15.9999V20C15 21.1046 15.8954 22 17 22C19.7614 22 22 19.7614 22 17Z" fill="#0EC02B"/>
<path fill-rule="evenodd" clip-rule="evenodd" d="M13.1332 2.30693C12.3917 2.10179 11.6084 2.10179 10.8668 2.30693C10.4834 2.413 10.0909 2.6105 9.55705 2.97692C9.01543 3.34869 8.37126 3.86342 7.47097 4.58365L5.47097 6.18365C4.33582 7.09177 3.88234 7.46265 3.559 7.9087C3.26018 8.32092 3.03787 8.78347 2.90265 9.27432C2.75633 9.80545 2.75001 10.3913 2.75001 11.845V17C2.75001 19.3472 4.6528 21.25 7.00001 21.25C7.69037 21.25 8.25001 20.6903 8.25001 20V15.9999C8.25001 13.9288 9.92895 12.2499 12 12.2499C14.0711 12.2499 15.75 13.9288 15.75 15.9999V20C15.75 20.6903 16.3097 21.25 17 21.25C19.3472 21.25 21.25 19.3472 21.25 17V11.845C21.25 10.3913 21.2437 9.80545 21.0974 9.27432C20.9622 8.78347 20.7398 8.32092 20.441 7.9087C20.1177 7.46265 19.6642 7.09177 18.5291 6.18365L16.5291 4.58365C15.6288 3.86342 14.9846 3.34869 14.443 2.97692C13.9092 2.6105 13.5166 2.413 13.1332 2.30693ZM10.4669 0.861235C11.4701 0.58369 12.5299 0.58369 13.5331 0.861235C14.1387 1.02877 14.6866 1.32479 15.2918 1.74022C15.8841 2.14674 16.5708 2.6961 17.4432 3.39402L17.4661 3.41235L19.4661 5.01235C19.4964 5.03659 19.5264 5.06055 19.556 5.08425C20.5727 5.89742 21.1985 6.39793 21.6555 7.02834C22.0598 7.58604 22.3606 8.21185 22.5435 8.87593C22.7503 9.62658 22.7502 10.4279 22.75 11.7298C22.75 11.7678 22.75 11.8061 22.75 11.845V17C22.75 20.1756 20.1756 22.75 17 22.75C15.4812 22.75 14.25 21.5187 14.25 20V15.9999C14.25 14.7573 13.2427 13.7499 12 13.7499C10.7574 13.7499 9.75001 14.7573 9.75001 15.9999V20C9.75001 21.5187 8.5188 22.75 7.00001 22.75C3.82438 22.75 1.25001 20.1756 1.25001 17V11.845C1.25001 11.8061 1.25001 11.7678 1.25 11.7298C1.24983 10.4279 1.24973 9.62658 1.45652 8.87593C1.63946 8.21185 1.94024 7.58604 2.34452 7.02834C2.8015 6.39793 3.42729 5.89743 4.44403 5.08426C4.47366 5.06056 4.50363 5.03659 4.53393 5.01235L6.53393 3.41235L6.55685 3.39401C7.42924 2.6961 8.11594 2.14673 8.70819 1.74022C9.31341 1.32479 9.86128 1.02877 10.4669 0.861235Z" fill="#0EC02B"/>
</svg>
