<svg width="20" height="21" viewBox="0 0 20 21" fill="none" xmlns="http://www.w3.org/2000/svg">
<path fill-rule="evenodd" clip-rule="evenodd" d="M5.8333 3.08306L5.76002 3.08303C5.3673 3.08284 5.06431 3.08269 4.7968 3.1359C3.7059 3.35289 2.85313 4.20566 2.63614 5.29656C2.58293 5.56406 2.58308 5.86705 2.58328 6.25978L2.5833 6.33305V14.6664L2.58328 14.7397C2.58308 15.1324 2.58293 15.4354 2.63614 15.7029C2.85313 16.7938 3.7059 17.6466 4.7968 17.8635C5.0643 17.9168 5.36729 17.9166 5.76001 17.9164H5.76002L5.8333 17.9164L5.90657 17.9164H5.90659C6.29931 17.9166 6.60229 17.9168 6.8698 17.8635C7.9607 17.6466 8.81347 16.7938 9.03046 15.7029C9.08367 15.4354 9.08352 15.1324 9.08332 14.7397L9.0833 14.6664V6.33306L9.08332 6.25978V6.25978V6.25977V6.25977C9.08352 5.86705 9.08367 5.56406 9.03046 5.29656C8.81347 4.20566 7.9607 3.35289 6.8698 3.1359C6.60229 3.08269 6.2993 3.08284 5.90657 3.08303L5.8333 3.08306ZM14.0934 3.08303L14.1666 3.08306L14.2399 3.08303C14.6326 3.08284 14.9356 3.08269 15.2031 3.1359C16.294 3.35289 17.1468 4.20566 17.3638 5.29656C17.417 5.56406 17.4169 5.86705 17.4167 6.25977V6.25978L17.4166 6.33306V14.6664L17.4167 14.7397V14.7397C17.4169 15.1324 17.417 15.4354 17.3638 15.7029C17.1468 16.7938 16.294 17.6466 15.2031 17.8635C14.9356 17.9168 14.6326 17.9166 14.2399 17.9164H14.2399L14.1666 17.9164L14.0934 17.9164H14.0933C13.7006 17.9166 13.3976 17.9168 13.1301 17.8635C12.0392 17.6466 11.1865 16.7938 10.9695 15.7029C10.9163 15.4354 10.9164 15.1324 10.9166 14.7397L10.9166 14.6664V6.33305L10.9166 6.25978C10.9164 5.86705 10.9163 5.56406 10.9695 5.29656C11.1865 4.20566 12.0392 3.35289 13.1301 3.1359C13.3976 3.08269 13.7006 3.08284 14.0934 3.08303Z" fill="#0EC02B"/>
</svg>
