<svg width="20" height="21" viewBox="0 0 20 21" fill="none" xmlns="http://www.w3.org/2000/svg">
<path d="M4.16675 13.0593V7.93983C4.16675 6.05545 4.16675 5.11326 4.56115 4.58224C4.90493 4.11936 5.43176 3.82737 6.00648 3.78116C6.66582 3.72816 7.4648 4.22752 9.06275 5.22624L13.1583 7.78598C14.5981 8.68581 15.3179 9.13572 15.5648 9.71176C15.7804 10.2148 15.7804 10.7843 15.5648 11.2874C15.3179 11.8634 14.5981 12.3133 13.1583 13.2132L9.06275 15.7729C7.4648 16.7716 6.66582 17.271 6.00648 17.218C5.43176 17.1718 4.90493 16.8798 4.56115 16.4169C4.16675 15.8859 4.16675 14.9437 4.16675 13.0593Z" fill="#0EC02B"/>
</svg>
