<svg width="20" height="20" viewBox="0 0 20 20" fill="none" xmlns="http://www.w3.org/2000/svg">
<path fill-rule="evenodd" clip-rule="evenodd" d="M11.5352 1.3573C10.6068 0.732464 9.39245 0.732463 8.46411 1.3573C8.10078 1.60184 7.83289 1.97573 7.5887 2.38801C7.3426 2.80351 7.06601 3.3567 6.72172 4.0453L6.70829 4.07215L6.66866 4.15142C6.47374 4.54125 6.41815 4.64522 6.35556 4.72675C6.19845 4.93142 5.98185 5.08245 5.73549 5.15912C5.63734 5.18967 5.52057 5.20589 5.08739 5.25402L5.06263 5.25677C4.38155 5.33244 3.83713 5.39293 3.41697 5.46461C3.00381 5.5351 2.61254 5.63037 2.29349 5.82523C1.14482 6.52682 0.672762 7.95674 1.17797 9.20431C1.3183 9.55082 1.57594 9.86032 1.86594 10.1629C2.16084 10.4707 2.56223 10.8434 3.06439 11.3097L3.06442 11.3097L3.08266 11.3266L3.20007 11.4357C3.54064 11.7519 3.63106 11.8407 3.69338 11.9273C3.88112 12.1883 3.96109 12.5116 3.91666 12.83C3.90191 12.9357 3.86331 13.0564 3.70944 13.495L3.70205 13.516L3.70203 13.5161C3.47598 14.1603 3.29655 14.6717 3.17851 15.0726C3.06378 15.4623 2.9762 15.8426 3.00044 16.1927C3.10444 17.695 4.39733 18.8342 5.90074 18.7483C6.25111 18.7283 6.61735 18.5935 6.98949 18.4307C7.37242 18.2631 7.85717 18.0207 8.46789 17.7154L8.48779 17.7054L9.02516 17.4367C9.46089 17.2189 9.57995 17.1639 9.69245 17.1354C9.89405 17.0843 10.1052 17.0843 10.3068 17.1354C10.4193 17.1639 10.5384 17.2189 10.9741 17.4367L11.5115 17.7054L11.5315 17.7154C12.1422 18.0208 12.6269 18.2631 13.0098 18.4307C13.3819 18.5935 13.7481 18.7283 14.0985 18.7483C15.6019 18.8342 16.8948 17.695 16.9988 16.1927C17.023 15.8426 16.9355 15.4623 16.8207 15.0726C16.7027 14.6716 16.5232 14.1602 16.2971 13.5159L16.2971 13.5158L16.2898 13.495C16.1359 13.0564 16.0973 12.9357 16.0826 12.83C16.0382 12.5116 16.1181 12.1883 16.3059 11.9273C16.3682 11.8407 16.4586 11.7519 16.7992 11.4357L16.9166 11.3266L16.9349 11.3096C17.4371 10.8434 17.8384 10.4707 18.1333 10.1629C18.4233 9.86032 18.681 9.55082 18.8213 9.20431C19.3265 7.95674 18.8544 6.52682 17.7058 5.82523C17.3867 5.63037 16.9954 5.5351 16.5823 5.46461C16.1621 5.39293 15.6177 5.33244 14.9366 5.25677L14.9119 5.25402C14.4787 5.20589 14.3619 5.18967 14.2638 5.15912C14.0174 5.08245 13.8008 4.93142 13.6437 4.72675C13.5811 4.64522 13.5255 4.54125 13.3306 4.15142L13.291 4.07216L13.2775 4.04529L13.2775 4.04523C12.9332 3.35666 12.6566 2.8035 12.4106 2.38801C12.1664 1.97573 11.8985 1.60184 11.5352 1.3573Z" fill="#F7C40F"/>
</svg>
