<svg width="16" height="16" viewBox="0 0 16 16" fill="none" xmlns="http://www.w3.org/2000/svg">
<path opacity="0.12" fill-rule="evenodd" clip-rule="evenodd" d="M5.46389 3.29832L4.75985 4.21358C3.54625 5.79125 2.93945 6.58009 2.74488 7.43665C2.57344 8.19137 2.62463 8.97962 2.89225 9.70583C3.19597 10.53 3.90852 11.2426 5.33362 12.6677H10.667C12.0921 11.2426 12.8046 10.53 13.1083 9.70583C13.3759 8.97962 13.4271 8.19137 13.2557 7.43665C13.0611 6.58009 12.4543 5.79125 11.2407 4.21358L11.2407 4.21358L10.5367 3.29832C9.67363 2.17635 9.2421 1.61536 8.71613 1.41375C8.25525 1.23708 7.74532 1.23708 7.28445 1.41375C6.75848 1.61536 6.32695 2.17635 5.46389 3.29832ZM8.00029 9.33434C8.73667 9.33434 9.33362 8.73739 9.33362 8.00101C9.33362 7.26463 8.73667 6.66767 8.00029 6.66767C7.26391 6.66767 6.66695 7.26463 6.66695 8.00101C6.66695 8.73739 7.26391 9.33434 8.00029 9.33434Z" fill="#F7C40F"/>
<path fill-rule="evenodd" clip-rule="evenodd" d="M8.75029 4.66767V2.31986C8.80808 2.37251 8.87351 2.43775 8.94829 2.51895C9.20196 2.79442 9.50225 3.18365 9.94222 3.75561L10.6463 4.67086C11.2601 5.46883 11.6942 6.03409 12.0025 6.50581C12.3057 6.9697 12.4546 7.29599 12.5243 7.60278C12.6636 8.21599 12.622 8.85645 12.4046 9.44649C12.2961 9.74077 12.1047 10.047 11.7391 10.4729C11.4066 10.8602 10.9627 11.3105 10.3562 11.9177H5.64437C5.03792 11.3105 4.59395 10.8602 4.26152 10.4729C3.89589 10.047 3.70443 9.74077 3.59598 9.44649C3.37855 8.85645 3.33695 8.21599 3.47625 7.60278C3.54594 7.29599 3.69491 6.9697 3.99806 6.50581C4.30633 6.03409 4.74049 5.46883 5.35432 4.67086L6.05836 3.75561C6.49832 3.18365 6.79861 2.79442 7.05228 2.51895C7.12706 2.43775 7.19249 2.37251 7.25029 2.31986V4.66767C7.25029 5.08189 7.58607 5.41767 8.00029 5.41767C8.4145 5.41767 8.75029 5.08189 8.75029 4.66767ZM3.91041 12.2984C3.60753 11.9877 3.34542 11.7087 3.12332 11.4499C2.70047 10.9573 2.38379 10.4951 2.18851 9.96516C1.87072 9.10279 1.80993 8.16674 2.01351 7.27051C2.1384 6.72075 2.39011 6.22434 2.7424 5.68525C3.08597 5.15951 3.55573 4.54883 4.14672 3.78055L4.16538 3.75629L4.86942 2.84104L4.89057 2.81354C5.30411 2.27593 5.64469 1.83315 5.94887 1.50284C6.26182 1.16301 6.59502 0.874801 7.01601 0.713432C7.64971 0.470523 8.35086 0.470523 8.98457 0.713432C9.40555 0.874801 9.73876 1.16301 10.0517 1.50284C10.3559 1.83314 10.6964 2.2759 11.11 2.81348L11.11 2.81352L11.11 2.81353L11.1312 2.84104L11.8352 3.75629L11.8538 3.78053L11.8539 3.78055L11.8539 3.78057L11.8539 3.7806C12.4449 4.54886 12.9146 5.15953 13.2582 5.68525C13.6105 6.22434 13.8622 6.72075 13.9871 7.27051C14.1906 8.16674 14.1299 9.10279 13.8121 9.96516C13.6168 10.4951 13.3001 10.9573 12.8773 11.4499C12.6552 11.7087 12.393 11.9877 12.0902 12.2984C12.4925 12.619 12.7503 13.1132 12.7503 13.6677C12.7503 14.6342 11.9668 15.4177 11.0003 15.4177H5.00029C4.03379 15.4177 3.25029 14.6342 3.25029 13.6677C3.25029 13.1132 3.50812 12.619 3.91041 12.2984ZM10.667 13.4177H5.00029C4.86222 13.4177 4.75029 13.5296 4.75029 13.6677C4.75029 13.8057 4.86222 13.9177 5.00029 13.9177H11.0003C11.1384 13.9177 11.2503 13.8057 11.2503 13.6677C11.2503 13.5296 11.1384 13.4177 11.0003 13.4177H10.667ZM7.41695 8.00101C7.41695 7.67884 7.67812 7.41767 8.00029 7.41767C8.32245 7.41767 8.58362 7.67884 8.58362 8.00101C8.58362 8.32317 8.32245 8.58434 8.00029 8.58434C7.67812 8.58434 7.41695 8.32317 7.41695 8.00101ZM8.00029 5.91767C6.84969 5.91767 5.91695 6.85041 5.91695 8.00101C5.91695 9.1516 6.84969 10.0843 8.00029 10.0843C9.15088 10.0843 10.0836 9.1516 10.0836 8.00101C10.0836 6.85041 9.15088 5.91767 8.00029 5.91767Z" fill="#F7C40F"/>
</svg>
