<svg width="20" height="20" viewBox="0 0 20 20" fill="none" xmlns="http://www.w3.org/2000/svg">
<path fill-rule="evenodd" clip-rule="evenodd" d="M4.08317 5.83333C4.08317 4.4066 5.23977 3.25 6.6665 3.25C8.09324 3.25 9.24984 4.4066 9.24984 5.83333C9.24984 7.26007 8.09324 8.41667 6.6665 8.41667C5.23977 8.41667 4.08317 7.26007 4.08317 5.83333ZM6.6665 1.75C4.41134 1.75 2.58317 3.57817 2.58317 5.83333C2.58317 8.0885 4.41134 9.91667 6.6665 9.91667C8.92167 9.91667 10.7498 8.0885 10.7498 5.83333C10.7498 3.57817 8.92167 1.75 6.6665 1.75ZM11.6665 1.75C11.2523 1.75 10.9165 2.08579 10.9165 2.5C10.9165 2.91421 11.2523 3.25 11.6665 3.25C13.0932 3.25 14.2498 4.4066 14.2498 5.83333C14.2498 7.26007 13.0932 8.41667 11.6665 8.41667C11.2523 8.41667 10.9165 8.75245 10.9165 9.16667C10.9165 9.58088 11.2523 9.91667 11.6665 9.91667C13.9217 9.91667 15.7498 8.0885 15.7498 5.83333C15.7498 3.57817 13.9217 1.75 11.6665 1.75ZM4.99984 13.25C3.5731 13.25 2.4165 14.4066 2.4165 15.8333C2.4165 16.3396 2.82691 16.75 3.33317 16.75H9.99984C10.5061 16.75 10.9165 16.3396 10.9165 15.8333C10.9165 14.4066 9.75991 13.25 8.33317 13.25H4.99984ZM0.916504 15.8333C0.916504 13.5782 2.74467 11.75 4.99984 11.75H8.33317C10.5883 11.75 12.4165 13.5782 12.4165 15.8333C12.4165 17.168 11.3345 18.25 9.99984 18.25H3.33317C1.99848 18.25 0.916504 17.168 0.916504 15.8333ZM13.3332 11.75C12.919 11.75 12.5832 12.0858 12.5832 12.5C12.5832 12.9142 12.919 13.25 13.3332 13.25H14.9998C16.4266 13.25 17.5832 14.4066 17.5832 15.8333C17.5832 16.3396 17.1728 16.75 16.6665 16.75H13.3332C12.919 16.75 12.5832 17.0858 12.5832 17.5C12.5832 17.9142 12.919 18.25 13.3332 18.25H16.6665C18.0012 18.25 19.0832 17.168 19.0832 15.8333C19.0832 13.5782 17.255 11.75 14.9998 11.75H13.3332Z" fill="#0EC02B"/>
</svg>
