<svg width="20" height="20" viewBox="0 0 20 20" fill="none" xmlns="http://www.w3.org/2000/svg">
<path fill-rule="evenodd" clip-rule="evenodd" d="M8.21368 2.09766H8.24668H11.5616H11.5946C12.6868 2.09765 13.5523 2.09765 14.2499 2.15464C14.9633 2.21293 15.5669 2.33454 16.1181 2.61538C17.0119 3.07077 17.7385 3.79743 18.1939 4.6912C18.4748 5.24238 18.5964 5.846 18.6547 6.55939C18.7117 7.25701 18.7116 8.1225 18.7116 9.21464V9.24766V10.9511V10.9841C18.7116 12.0763 18.7117 12.9418 18.6547 13.6394C18.5964 14.3528 18.4748 14.9564 18.1939 15.5076C17.7385 16.4013 17.0119 17.128 16.1181 17.5834C15.5669 17.8642 14.9633 17.9858 14.2499 18.0441C13.5523 18.1011 12.6868 18.1011 11.5947 18.1011H11.5947H11.5616H8.24668H8.21366H8.21359C7.12149 18.1011 6.25602 18.1011 5.55841 18.0441C4.84502 17.9858 4.2414 17.8642 3.69023 17.5834C2.79646 17.128 2.0698 16.4013 1.6144 15.5076C1.33356 14.9564 1.21195 14.3528 1.15367 13.6394C1.09667 12.9418 1.09667 12.0763 1.09668 10.9841V10.9511V9.24765V9.21465V9.21464C1.09667 8.1225 1.09667 7.25701 1.15367 6.55939C1.1678 6.38643 1.18565 6.21991 1.2086 6.05904C1.17942 5.97895 1.1635 5.89249 1.1635 5.80231C1.1635 5.59758 1.24554 5.41201 1.37852 5.27667C1.44112 5.07387 1.51847 4.87948 1.6144 4.6912C2.0698 3.79743 2.79646 3.07077 3.69023 2.61538C4.2414 2.33454 4.84502 2.21293 5.55841 2.15464C6.25603 2.09765 7.12153 2.09765 8.21367 2.09766H8.21368ZM2.64869 6.68154C2.6523 6.63728 2.65615 6.59422 2.66024 6.55231H14.6712C15.0854 6.55231 15.4212 6.21652 15.4212 5.80231C15.4212 5.3881 15.0854 5.05231 14.6712 5.05231H3.13758C3.44591 4.58704 3.87018 4.20717 4.37121 3.95189C4.67568 3.79675 5.05993 3.70037 5.68056 3.64966C6.30995 3.59824 7.1142 3.59766 8.24668 3.59766H11.5616C12.6941 3.59766 13.4984 3.59824 14.1278 3.64966C14.7484 3.70037 15.1326 3.79675 15.4371 3.95189C16.0486 4.26347 16.5458 4.76066 16.8574 5.37219C17.0125 5.67666 17.1089 6.06091 17.1596 6.68154C17.2111 7.31092 17.2116 8.11518 17.2116 9.24766V10.9511C17.2116 12.0836 17.2111 12.8879 17.1596 13.5172C17.1089 14.1379 17.0125 14.5221 16.8574 14.8266C16.5458 15.4381 16.0486 15.9353 15.4371 16.2469C15.1326 16.402 14.7484 16.4984 14.1278 16.5491C13.4984 16.6005 12.6941 16.6011 11.5616 16.6011H8.24668C7.1142 16.6011 6.30994 16.6005 5.68056 16.5491C5.05993 16.4984 4.67568 16.402 4.37121 16.2469C3.75968 15.9353 3.2625 15.4381 2.95091 14.8266C2.79577 14.5221 2.69939 14.1379 2.64869 13.5172C2.59726 12.8879 2.59668 12.0836 2.59668 10.9511V9.24765C2.59668 8.11517 2.59726 7.31092 2.64869 6.68154ZM4.2642 7.73797C3.84999 7.73797 3.5142 8.07376 3.5142 8.48797C3.5142 8.90219 3.84999 9.23797 4.2642 9.23797H6.95003C7.36424 9.23797 7.70003 8.90219 7.70003 8.48797C7.70003 8.07376 7.36424 7.73797 6.95003 7.73797H4.2642Z" fill="#0EC02B"/>
</svg>
